<svg xmlns="http://www.w3.org/2000/svg" width="1440" height="760" viewBox="0 0 1440 760" preserveAspectRatio="xMidYMid slice">
  <defs>
    <linearGradient id="sky" x1="0" y1="0" x2="0" y2="1">
      <stop offset="0" stop-color="#103a52"/>
      <stop offset="1" stop-color="#0b3d2e"/>
    </linearGradient>
    <radialGradient id="glow" cx="78%" cy="8%" r="60%">
      <stop offset="0" stop-color="#1a9e63" stop-opacity="0.35"/>
      <stop offset="1" stop-color="#1a9e63" stop-opacity="0"/>
    </radialGradient>
  </defs>
  <rect width="1440" height="760" fill="url(#sky)"/>
  <rect width="1440" height="760" fill="url(#glow)"/>
  <!-- distant hills -->
  <path d="M0 600 Q 360 520 720 580 T 1440 560 V760 H0 Z" fill="#0c2e22" opacity="0.55"/>
  <path d="M0 660 Q 420 600 900 650 T 1440 630 V760 H0 Z" fill="#0a241b" opacity="0.7"/>
  <!-- campus buildings silhouette -->
  <g fill="#0a2018" opacity="0.92">
    <rect x="120" y="430" width="150" height="220"/>
    <rect x="300" y="380" width="120" height="270"/>
    <rect x="300" y="360" width="120" height="24"/>
    <polygon points="300,360 360,320 420,360"/>
    <rect x="470" y="470" width="180" height="180"/>
    <rect x="690" y="340" width="150" height="310"/>
    <polygon points="690,340 765,290 840,340"/>
    <rect x="880" y="420" width="160" height="230"/>
    <rect x="1080" y="380" width="130" height="270"/>
    <rect x="1080" y="360" width="130" height="22"/>
    <polygon points="1080,360 1145,318 1210,360"/>
    <rect x="1240" y="450" width="140" height="200"/>
    <!-- dome -->
    <path d="M560 470 a60 60 0 0 1 120 0 Z" />
    <rect x="600" y="430" width="40" height="44"/>
  </g>
  <!-- window dots -->
  <g fill="#1a9e63" opacity="0.5">
    <rect x="140" y="460" width="14" height="20"/><rect x="170" y="460" width="14" height="20"/><rect x="200" y="460" width="14" height="20"/>
    <rect x="140" y="500" width="14" height="20"/><rect x="170" y="500" width="14" height="20"/><rect x="200" y="500" width="14" height="20"/>
    <rect x="710" y="370" width="16" height="22"/><rect x="745" y="370" width="16" height="22"/><rect x="780" y="370" width="16" height="22"/>
    <rect x="710" y="410" width="16" height="22"/><rect x="745" y="410" width="16" height="22"/><rect x="780" y="410" width="16" height="22"/>
    <rect x="1110" y="410" width="14" height="20"/><rect x="1140" y="410" width="14" height="20"/><rect x="1170" y="410" width="14" height="20"/>
  </g>
  <!-- floating particles -->
  <g fill="#ffffff" opacity="0.06">
    <circle cx="200" cy="160" r="3"/><circle cx="520" cy="100" r="2"/><circle cx="900" cy="180" r="3"/>
    <circle cx="1180" cy="120" r="2.5"/><circle cx="1340" cy="220" r="3"/><circle cx="760" cy="240" r="2"/>
  </g>
</svg>
